<svg xmlns="http://www.w3.org/2000/svg">
  <symbol id="burger" viewBox="0 0 36 36">
    <rect width="36" height="36" fill="currentColor"/>
    <path d="M4.5 27V24H31.5V27H4.5ZM4.5 19.5V16.5H31.5V19.5H4.5ZM4.5 12V9H31.5V12H4.5Z" fill="currentColor"/>
  </symbol>
  <symbol id="logo" viewBox="0 0 40 40">
    <path
      d="M31.5294 14.2118C31.5294 18.8819 28.7623 22.9082 24.7793 24.7351C26.4612 23.3496 27.5322 21.248 27.5322 18.896C27.5322 14.7642 24.2259 11.4042 20.112 11.3205C20.0574 11.3167 20.0075 11.3167 19.9529 11.3167C19.8983 11.3167 19.8485 11.3167 19.7939 11.3205C18.2673 11.4033 17.0588 12.6663 17.0588 14.2108V28.6814C17.0588 33.4748 13.1699 37.3638 8.37646 37.3638V14.2118C8.37646 7.81928 13.5605 2.63528 19.9529 2.63528C26.3454 2.63528 31.5294 7.81928 31.5294 14.2118Z"
      fill="currentColor"/>
    <path
      d="M21.9992 16.2582C23.1294 15.128 23.1294 13.2956 21.9992 12.1654C20.8689 11.0351 19.0365 11.0351 17.9063 12.1654C16.7761 13.2956 16.7761 15.128 17.9063 16.2582C19.0365 17.3884 20.8689 17.3884 21.9992 16.2582Z"
      fill="currentColor"/>
  </symbol>
  <symbol id="download" viewBox="0 0 24 24">
    <path
      d="M18.22 20.75H5.78C5.43322 20.7359 5.09262 20.6535 4.77771 20.5075C4.4628 20.3616 4.17975 20.155 3.94476 19.8996C3.70977 19.6442 3.52745 19.3449 3.40824 19.019C3.28903 18.693 3.23525 18.3468 3.25 18V15C3.25 14.8011 3.32902 14.6103 3.46967 14.4697C3.61033 14.329 3.80109 14.25 4 14.25C4.19892 14.25 4.38968 14.329 4.53033 14.4697C4.67099 14.6103 4.75 14.8011 4.75 15V18C4.72419 18.2969 4.81365 18.5924 4.99984 18.8251C5.18602 19.0579 5.45465 19.21 5.75 19.25H18.22C18.5154 19.21 18.784 19.0579 18.9702 18.8251C19.1564 18.5924 19.2458 18.2969 19.22 18V15C19.22 14.8011 19.299 14.6103 19.4397 14.4697C19.5803 14.329 19.7711 14.25 19.97 14.25C20.1689 14.25 20.3597 14.329 20.5003 14.4697C20.641 14.6103 20.72 14.8011 20.72 15V18C20.75 18.6954 20.5041 19.3744 20.0359 19.8894C19.5677 20.4045 18.9151 20.7137 18.22 20.75Z"
      fill="currentColor"/>
    <path
      d="M12 15.75C11.9015 15.7504 11.8038 15.7312 11.7128 15.6934C11.6218 15.6557 11.5392 15.6001 11.47 15.53L7.47 11.53C7.33752 11.3878 7.2654 11.1997 7.26882 11.0054C7.27225 10.8111 7.35096 10.6258 7.48838 10.4883C7.62579 10.3509 7.81118 10.2722 8.00548 10.2688C8.19978 10.2654 8.38782 10.3375 8.53 10.47L12 13.94L15.47 10.47C15.6122 10.3375 15.8002 10.2654 15.9945 10.2688C16.1888 10.2722 16.3742 10.3509 16.5116 10.4883C16.649 10.6258 16.7277 10.8111 16.7312 11.0054C16.7346 11.1997 16.6625 11.3878 16.53 11.53L12.53 15.53C12.4608 15.6001 12.3782 15.6557 12.2872 15.6934C12.1962 15.7312 12.0985 15.7504 12 15.75Z"
      fill="currentColor"/>
    <path
      d="M12 15.75C11.8019 15.7474 11.6126 15.6676 11.4725 15.5275C11.3324 15.3874 11.2526 15.1981 11.25 15V4C11.25 3.80109 11.329 3.61032 11.4697 3.46967C11.6103 3.32902 11.8011 3.25 12 3.25C12.1989 3.25 12.3897 3.32902 12.5303 3.46967C12.671 3.61032 12.75 3.80109 12.75 4V15C12.7474 15.1981 12.6676 15.3874 12.5275 15.5275C12.3874 15.6676 12.1981 15.7474 12 15.75Z"
      fill="currentColor"/>
  </symbol>
  <symbol id="twitter" viewBox="0 0 20 21">
    <path
      d="M6.2918 18.4064C13.8371 18.4064 17.9652 12.1536 17.9652 6.73292C17.9652 6.55714 17.9613 6.37745 17.9535 6.20167C18.7566 5.62092 19.4496 4.90158 20 4.07745C19.2521 4.41021 18.458 4.62752 17.6449 4.72199C18.5011 4.2088 19.1421 3.4026 19.4492 2.45284C18.6438 2.93017 17.763 3.26688 16.8445 3.44855C16.2257 2.79101 15.4075 2.35564 14.5164 2.20975C13.6253 2.06386 12.711 2.21558 11.9148 2.64145C11.1186 3.06732 10.4848 3.74363 10.1115 4.5658C9.73825 5.38797 9.64619 6.31022 9.84961 7.18995C8.21874 7.10811 6.62328 6.68446 5.16665 5.94645C3.71002 5.20845 2.42474 4.17257 1.39414 2.90597C0.870333 3.80907 0.710047 4.87774 0.945859 5.89478C1.18167 6.91182 1.79589 7.80091 2.66367 8.38136C2.01219 8.36068 1.37498 8.18527 0.804688 7.86964V7.92042C0.804104 8.86816 1.13175 9.78686 1.73192 10.5203C2.3321 11.2538 3.16777 11.7568 4.09687 11.9439C3.49338 12.109 2.85999 12.133 2.2457 12.0142C2.50788 12.8292 3.01798 13.5421 3.70481 14.0533C4.39164 14.5645 5.22093 14.8485 6.07695 14.8657C4.62369 16.0073 2.82848 16.6265 0.980469 16.6235C0.652739 16.623 0.325333 16.603 0 16.5634C1.87738 17.7678 4.06128 18.4075 6.2918 18.4064Z"
      fill="currentColor"/>
  </symbol>
</svg>
