<svg xmlns="http://www.w3.org/2000/svg">
  <symbol id="burger" viewBox="0 0 36 36">
    <rect width="36" height="36" fill="currentColor"/>
    <path d="M4.5 27V24H31.5V27H4.5ZM4.5 19.5V16.5H31.5V19.5H4.5ZM4.5 12V9H31.5V12H4.5Z" fill="currentColor"/>
  </symbol>
  <symbol id="logo" viewBox="0 0 40 40">
    <path
      d="M31.5294 14.2118C31.5294 18.8819 28.7623 22.9082 24.7793 24.7351C26.4612 23.3496 27.5322 21.248 27.5322 18.896C27.5322 14.7642 24.2259 11.4042 20.112 11.3205C20.0574 11.3167 20.0075 11.3167 19.9529 11.3167C19.8983 11.3167 19.8485 11.3167 19.7939 11.3205C18.2673 11.4033 17.0588 12.6663 17.0588 14.2108V28.6814C17.0588 33.4748 13.1699 37.3638 8.37646 37.3638V14.2118C8.37646 7.81928 13.5605 2.63528 19.9529 2.63528C26.3454 2.63528 31.5294 7.81928 31.5294 14.2118Z"
      fill="currentColor"/>
    <path
      d="M21.9992 16.2582C23.1294 15.128 23.1294 13.2956 21.9992 12.1654C20.8689 11.0351 19.0365 11.0351 17.9063 12.1654C16.7761 13.2956 16.7761 15.128 17.9063 16.2582C19.0365 17.3884 20.8689 17.3884 21.9992 16.2582Z"
      fill="currentColor"/>
  </symbol>
  <symbol id="download" viewBox="0 0 24 24">
    <path
      d="M18.22 20.75H5.78C5.43322 20.7359 5.09262 20.6535 4.77771 20.5075C4.4628 20.3616 4.17975 20.155 3.94476 19.8996C3.70977 19.6442 3.52745 19.3449 3.40824 19.019C3.28903 18.693 3.23525 18.3468 3.25 18V15C3.25 14.8011 3.32902 14.6103 3.46967 14.4697C3.61033 14.329 3.80109 14.25 4 14.25C4.19892 14.25 4.38968 14.329 4.53033 14.4697C4.67099 14.6103 4.75 14.8011 4.75 15V18C4.72419 18.2969 4.81365 18.5924 4.99984 18.8251C5.18602 19.0579 5.45465 19.21 5.75 19.25H18.22C18.5154 19.21 18.784 19.0579 18.9702 18.8251C19.1564 18.5924 19.2458 18.2969 19.22 18V15C19.22 14.8011 19.299 14.6103 19.4397 14.4697C19.5803 14.329 19.7711 14.25 19.97 14.25C20.1689 14.25 20.3597 14.329 20.5003 14.4697C20.641 14.6103 20.72 14.8011 20.72 15V18C20.75 18.6954 20.5041 19.3744 20.0359 19.8894C19.5677 20.4045 18.9151 20.7137 18.22 20.75Z"
      fill="currentColor"/>
    <path
      d="M12 15.75C11.9015 15.7504 11.8038 15.7312 11.7128 15.6934C11.6218 15.6557 11.5392 15.6001 11.47 15.53L7.47 11.53C7.33752 11.3878 7.2654 11.1997 7.26882 11.0054C7.27225 10.8111 7.35096 10.6258 7.48838 10.4883C7.62579 10.3509 7.81118 10.2722 8.00548 10.2688C8.19978 10.2654 8.38782 10.3375 8.53 10.47L12 13.94L15.47 10.47C15.6122 10.3375 15.8002 10.2654 15.9945 10.2688C16.1888 10.2722 16.3742 10.3509 16.5116 10.4883C16.649 10.6258 16.7277 10.8111 16.7312 11.0054C16.7346 11.1997 16.6625 11.3878 16.53 11.53L12.53 15.53C12.4608 15.6001 12.3782 15.6557 12.2872 15.6934C12.1962 15.7312 12.0985 15.7504 12 15.75Z"
      fill="currentColor"/>
    <path
      d="M12 15.75C11.8019 15.7474 11.6126 15.6676 11.4725 15.5275C11.3324 15.3874 11.2526 15.1981 11.25 15V4C11.25 3.80109 11.329 3.61032 11.4697 3.46967C11.6103 3.32902 11.8011 3.25 12 3.25C12.1989 3.25 12.3897 3.32902 12.5303 3.46967C12.671 3.61032 12.75 3.80109 12.75 4V15C12.7474 15.1981 12.6676 15.3874 12.5275 15.5275C12.3874 15.6676 12.1981 15.7474 12 15.75Z"
      fill="currentColor"/>
  </symbol>
  <symbol id="twitter" viewBox="0 0 20 21">
    <path
      d="M6.2918 18.4064C13.8371 18.4064 17.9652 12.1536 17.9652 6.73292C17.9652 6.55714 17.9613 6.37745 17.9535 6.20167C18.7566 5.62092 19.4496 4.90158 20 4.07745C19.2521 4.41021 18.458 4.62752 17.6449 4.72199C18.5011 4.2088 19.1421 3.4026 19.4492 2.45284C18.6438 2.93017 17.763 3.26688 16.8445 3.44855C16.2257 2.79101 15.4075 2.35564 14.5164 2.20975C13.6253 2.06386 12.711 2.21558 11.9148 2.64145C11.1186 3.06732 10.4848 3.74363 10.1115 4.5658C9.73825 5.38797 9.64619 6.31022 9.84961 7.18995C8.21874 7.10811 6.62328 6.68446 5.16665 5.94645C3.71002 5.20845 2.42474 4.17257 1.39414 2.90597C0.870333 3.80907 0.710047 4.87774 0.945859 5.89478C1.18167 6.91182 1.79589 7.80091 2.66367 8.38136C2.01219 8.36068 1.37498 8.18527 0.804688 7.86964V7.92042C0.804104 8.86816 1.13175 9.78686 1.73192 10.5203C2.3321 11.2538 3.16777 11.7568 4.09687 11.9439C3.49338 12.109 2.85999 12.133 2.2457 12.0142C2.50788 12.8292 3.01798 13.5421 3.70481 14.0533C4.39164 14.5645 5.22093 14.8485 6.07695 14.8657C4.62369 16.0073 2.82848 16.6265 0.980469 16.6235C0.652739 16.623 0.325333 16.603 0 16.5634C1.87738 17.7678 4.06128 18.4075 6.2918 18.4064Z"
      fill="currentColor"/>
  </symbol>
  <!-- skills -->
  <symbol id="git" viewBox="0 0 56 56">
    <path
      d="M49.2333 25.7833L30.2166 6.76665C29.6333 6.18331 28.8166 5.83331 27.9999 5.83331C27.1833 5.83331 26.3666 6.18331 25.7833 6.76665L21.6999 10.85L26.4833 15.6333C26.9499 15.4 27.4166 15.2833 27.9999 15.2833C29.9833 15.2833 31.4999 16.8 31.4999 18.7833C31.4999 19.3666 31.3833 19.8333 31.1499 20.3L35.8166 24.9666C36.2833 24.7333 36.7499 24.6166 37.3333 24.6166C39.3166 24.6166 40.8333 26.1333 40.8333 28.1166C40.8333 30.1 39.3166 31.6166 37.3333 31.6166C35.3499 31.6166 33.8333 30.1 33.8333 28.1166C33.8333 27.5333 33.9499 27.0666 34.1833 26.6L29.5166 21.9333C29.3999 21.9333 29.2833 22.05 29.1666 22.05V34.1833C30.5666 34.65 31.4999 35.9333 31.4999 37.45C31.4999 39.4333 29.9833 40.95 27.9999 40.95C26.0166 40.95 24.4999 39.4333 24.4999 37.45C24.4999 35.9333 25.4333 34.65 26.8333 34.1833V21.9333C25.4333 21.4666 24.4999 20.1833 24.4999 18.6666C24.4999 18.0833 24.6166 17.6166 24.8499 17.15L20.0666 12.3666L6.76659 25.7833C6.18325 26.3666 5.83325 27.1833 5.83325 28C5.83325 28.8166 6.18325 29.6333 6.76659 30.2166L25.7833 49.2333C26.3666 49.8167 27.1833 50.1666 27.9999 50.1666C28.8166 50.1666 29.6333 49.8167 30.2166 49.2333L49.2333 30.2166C49.8166 29.6333 50.1666 28.8166 50.1666 28C50.1666 27.1833 49.8166 26.3666 49.2333 25.7833Z"
      fill="currentColor"/>
  </symbol>
  <symbol id="link" viewBox="0 0 20 21">
    <path d="M10.8333 9.44759L17.6666 2.61426" stroke="white" stroke-width="2" stroke-linecap="round"
          stroke-linejoin="round"/>
    <path d="M18.3333 5.94775V1.94775H14.3333" stroke="white" stroke-width="2" stroke-linecap="round"
          stroke-linejoin="round"/>
    <path
      d="M9.16675 1.94775H7.50008C3.33341 1.94775 1.66675 3.61442 1.66675 7.78109V12.7811C1.66675 16.9478 3.33341 18.6144 7.50008 18.6144H12.5001C16.6667 18.6144 18.3334 16.9478 18.3334 12.7811V11.1144"
      stroke="white" stroke-width="2" stroke-linecap="round" stroke-linejoin="round"/>
  </symbol>
  <!-- socials -->
  <symbol id="telegram" viewBox="0 0 48 48">
    <path
      d="M41.4193 7.30899C41.4193 7.30899 45.3046 5.79399 44.9808 9.47328C44.8729 10.9883 43.9016 16.2908 43.1461 22.0262L40.5559 39.0159C40.5559 39.0159 40.3401 41.5048 38.3974 41.9377C36.4547 42.3705 33.5408 40.4227 33.0011 39.9898C32.5694 39.6652 24.9068 34.7955 22.2086 32.4148C21.4531 31.7655 20.5897 30.4669 22.3165 28.9519L33.6487 18.1305C34.9438 16.8319 36.2389 13.8019 30.8426 17.4812L15.7331 27.7616C15.7331 27.7616 14.0063 28.8437 10.7686 27.8698L3.75342 25.7055C3.75342 25.7055 1.16321 24.0823 5.58815 22.459C16.3807 17.3729 29.6555 12.1786 41.4193 7.30899Z"
      fill="currentColor"/>
  </symbol>
  <symbol id="instagram" viewBox="0 0 24 24">
    <path fill-rule="evenodd" clip-rule="evenodd"
          d="M12 18C15.3137 18 18 15.3137 18 12C18 8.68629 15.3137 6 12 6C8.68629 6 6 8.68629 6 12C6 15.3137 8.68629 18 12 18ZM12 16C14.2091 16 16 14.2091 16 12C16 9.79086 14.2091 8 12 8C9.79086 8 8 9.79086 8 12C8 14.2091 9.79086 16 12 16Z"
          fill="currentColor"/>
    <path
      d="M18 5C17.4477 5 17 5.44772 17 6C17 6.55228 17.4477 7 18 7C18.5523 7 19 6.55228 19 6C19 5.44772 18.5523 5 18 5Z"
      fill="currentColor"/>
    <path fill-rule="evenodd" clip-rule="evenodd"
          d="M1.65396 4.27606C1 5.55953 1 7.23969 1 10.6V13.4C1 16.7603 1 18.4405 1.65396 19.7239C2.2292 20.8529 3.14708 21.7708 4.27606 22.346C5.55953 23 7.23969 23 10.6 23H13.4C16.7603 23 18.4405 23 19.7239 22.346C20.8529 21.7708 21.7708 20.8529 22.346 19.7239C23 18.4405 23 16.7603 23 13.4V10.6C23 7.23969 23 5.55953 22.346 4.27606C21.7708 3.14708 20.8529 2.2292 19.7239 1.65396C18.4405 1 16.7603 1 13.4 1H10.6C7.23969 1 5.55953 1 4.27606 1.65396C3.14708 2.2292 2.2292 3.14708 1.65396 4.27606ZM13.4 3H10.6C8.88684 3 7.72225 3.00156 6.82208 3.0751C5.94524 3.14674 5.49684 3.27659 5.18404 3.43597C4.43139 3.81947 3.81947 4.43139 3.43597 5.18404C3.27659 5.49684 3.14674 5.94524 3.0751 6.82208C3.00156 7.72225 3 8.88684 3 10.6V13.4C3 15.1132 3.00156 16.2777 3.0751 17.1779C3.14674 18.0548 3.27659 18.5032 3.43597 18.816C3.81947 19.5686 4.43139 20.1805 5.18404 20.564C5.49684 20.7234 5.94524 20.8533 6.82208 20.9249C7.72225 20.9984 8.88684 21 10.6 21H13.4C15.1132 21 16.2777 20.9984 17.1779 20.9249C18.0548 20.8533 18.5032 20.7234 18.816 20.564C19.5686 20.1805 20.1805 19.5686 20.564 18.816C20.7234 18.5032 20.8533 18.0548 20.9249 17.1779C20.9984 16.2777 21 15.1132 21 13.4V10.6C21 8.88684 20.9984 7.72225 20.9249 6.82208C20.8533 5.94524 20.7234 5.49684 20.564 5.18404C20.1805 4.43139 19.5686 3.81947 18.816 3.43597C18.5032 3.27659 18.0548 3.14674 17.1779 3.0751C16.2777 3.00156 15.1132 3 13.4 3Z"
          fill="currentColor"/>
  </symbol>
  <symbol id="whatsapp" viewBox="0 0 24 24">
    <path fill-rule="evenodd" clip-rule="evenodd"
          d="M3.50002 12C3.50002 7.30558 7.3056 3.5 12 3.5C16.6944 3.5 20.5 7.30558 20.5 12C20.5 16.6944 16.6944 20.5 12 20.5C10.3278 20.5 8.77127 20.0182 7.45798 19.1861C7.21357 19.0313 6.91408 18.9899 6.63684 19.0726L3.75769 19.9319L4.84173 17.3953C4.96986 17.0955 4.94379 16.7521 4.77187 16.4751C3.9657 15.176 3.50002 13.6439 3.50002 12ZM12 1.5C6.20103 1.5 1.50002 6.20101 1.50002 12C1.50002 13.8381 1.97316 15.5683 2.80465 17.0727L1.08047 21.107C0.928048 21.4637 0.99561 21.8763 1.25382 22.1657C1.51203 22.4552 1.91432 22.5692 2.28599 22.4582L6.78541 21.1155C8.32245 21.9965 10.1037 22.5 12 22.5C17.799 22.5 22.5 17.799 22.5 12C22.5 6.20101 17.799 1.5 12 1.5ZM14.2925 14.1824L12.9783 15.1081C12.3628 14.7575 11.6823 14.2681 10.9997 13.5855C10.2901 12.8759 9.76402 12.1433 9.37612 11.4713L10.2113 10.7624C10.5697 10.4582 10.6678 9.94533 10.447 9.53028L9.38284 7.53028C9.23954 7.26097 8.98116 7.0718 8.68115 7.01654C8.38113 6.96129 8.07231 7.046 7.84247 7.24659L7.52696 7.52195C6.76823 8.18414 6.3195 9.2723 6.69141 10.3741C7.07698 11.5163 7.89983 13.314 9.58552 14.9997C11.3991 16.8133 13.2413 17.5275 14.3186 17.8049C15.1866 18.0283 16.008 17.7288 16.5868 17.2572L17.1783 16.7752C17.4313 16.5691 17.5678 16.2524 17.544 15.9269C17.5201 15.6014 17.3389 15.308 17.0585 15.1409L15.3802 14.1409C15.0412 13.939 14.6152 13.9552 14.2925 14.1824Z"
          fill="currentColor"/>
  </symbol>
  <symbol id="git" viewBox="0 0 40 40">
    <path fill-rule="evenodd" clip-rule="evenodd"
          d="M13.4142 3.82843C12.6332 3.04738 11.3668 3.04738 10.5858 3.82843L9.91421 4.5L11.482 6.06774C11.6472 6.02356 11.8208 6 12 6C13.1046 6 14 6.89543 14 8C14 8.17916 13.9764 8.35282 13.9323 8.51804L15.982 10.5677C16.1472 10.5236 16.3208 10.5 16.5 10.5C17.6046 10.5 18.5 11.3954 18.5 12.5C18.5 13.6046 17.6046 14.5 16.5 14.5C15.3954 14.5 14.5 13.6046 14.5 12.5C14.5 12.3208 14.5236 12.1472 14.5677 11.982L13 10.4142V15.2676C13.5978 15.6134 14 16.2597 14 17C14 18.1046 13.1046 19 12 19C10.8954 19 10 18.1046 10 17C10 16.2597 10.4022 15.6134 11 15.2676V9.73244C10.4022 9.38663 10 8.74028 10 8C10 7.82084 10.0236 7.64718 10.0677 7.48196L8.5 5.91421L3.82843 10.5858C3.04738 11.3668 3.04738 12.6332 3.82843 13.4142L10.5858 20.1716C11.3668 20.9526 12.6332 20.9526 13.4142 20.1716L20.1716 13.4142C20.9526 12.6332 20.9526 11.3668 20.1716 10.5858L13.4142 3.82843ZM9.17157 2.41421C10.7337 0.852115 13.2663 0.852119 14.8284 2.41422L21.5858 9.17157C23.1479 10.7337 23.1479 13.2663 21.5858 14.8284L14.8284 21.5858C13.2663 23.1479 10.7337 23.1479 9.17157 21.5858L2.41421 14.8284C0.852115 13.2663 0.852119 10.7337 2.41422 9.17157L9.17157 2.41421Z"
          fill="currentColor"/>
  </symbol>
</svg>
